<?xml version="1.0" encoding="UTF-8" standalone="no"?>
<!DOCTYPE svg PUBLIC "-//W3C//DTD SVG 1.1//EN" "http://www.w3.org/Graphics/SVG/1.1/DTD/svg11.dtd">
<svg width="100%" height="100%" viewBox="0 0 1200 1200" version="1.1" xmlns="http://www.w3.org/2000/svg" xmlns:xlink="http://www.w3.org/1999/xlink" xml:space="preserve" xmlns:serif="http://www.serif.com/" style="fill-rule:evenodd;clip-rule:evenodd;stroke-linejoin:round;stroke-miterlimit:2;">
    <path d="M1025.8,452.07L1025.81,452.074C1030.25,458.191 1032.65,465.628 1032.65,473.187L1032.65,726.697C1032.65,734.255 1030.24,741.697 1025.81,747.814L876.797,952.974C872.36,959.095 866,963.654 858.801,966.052L617.651,1044.4C614.054,1045.6 610.335,1046.2 606.495,1046.2C602.659,1046.2 598.937,1045.6 595.339,1044.4L354.189,966.052C346.99,963.654 340.631,959.091 336.193,952.974L187.183,747.814C182.742,741.693 180.343,734.256 180.343,726.697L180.343,473.187C180.343,465.629 182.746,458.187 187.183,452.07L336.303,246.91C340.74,240.789 347.1,236.23 354.299,233.832L595.449,155.488C602.648,153.09 610.445,153.09 617.644,155.488L858.794,233.832C865.993,236.23 872.353,240.793 876.79,246.91L1025.8,452.07Z"/>
</svg>
