<?xml version="1.0" encoding="UTF-8" standalone="no"?>
<!DOCTYPE svg PUBLIC "-//W3C//DTD SVG 1.1//EN" "http://www.w3.org/Graphics/SVG/1.1/DTD/svg11.dtd">
<svg width="100%" height="100%" viewBox="0 0 1200 1200" version="1.1" xmlns="http://www.w3.org/2000/svg" xmlns:xlink="http://www.w3.org/1999/xlink" xml:space="preserve" xmlns:serif="http://www.serif.com/" style="fill-rule:evenodd;clip-rule:evenodd;stroke-linejoin:round;stroke-miterlimit:2;">
    <path d="M986.08,388.24L986.081,388.243C986.202,389.442 986.682,390.641 986.686,391.836L994.245,793.636C994.484,806.593 987.886,818.594 976.847,825.191L632.637,1032.63C626.875,1036.11 620.519,1037.79 614.039,1037.79C608.039,1037.79 602.039,1036.35 596.641,1033.35L244.631,838.994C233.353,832.756 226.271,820.998 226.033,808.162L218.474,406.362C218.474,405.042 218.834,403.843 218.955,402.643C219.076,400.964 219.197,399.284 219.556,397.604C219.916,395.925 220.634,394.483 221.236,392.925C221.595,391.725 221.834,390.526 222.435,389.327C222.556,389.206 222.673,389.085 222.794,388.846C223.513,387.409 224.591,386.089 225.552,384.768C226.392,383.686 227.232,382.366 228.193,381.288C229.271,380.21 230.474,379.37 231.552,378.409C232.873,377.327 234.072,376.128 235.513,375.288C235.755,375.167 235.876,374.928 236.115,374.807L580.205,167.247C591.244,160.529 604.92,160.29 616.197,166.529L967.967,360.889C968.088,361.01 968.209,361.127 968.447,361.248C970.006,362.088 971.326,363.291 972.646,364.369C973.724,365.209 974.924,365.928 975.885,366.889C976.963,367.967 977.803,369.287 978.764,370.486C979.724,371.807 980.803,373.006 981.642,374.326C981.642,374.447 981.76,374.564 981.881,374.685C982.6,375.885 982.959,377.205 983.439,378.525C984.041,380.084 984.76,381.404 985.24,382.963C985.721,384.642 985.842,386.439 986.08,388.24Z"/>
</svg>
