<?xml version="1.0" encoding="UTF-8" standalone="no"?>
<!DOCTYPE svg PUBLIC "-//W3C//DTD SVG 1.1//EN" "http://www.w3.org/Graphics/SVG/1.1/DTD/svg11.dtd">
<svg width="100%" height="100%" viewBox="0 0 1200 1200" version="1.1" xmlns="http://www.w3.org/2000/svg" xmlns:xlink="http://www.w3.org/1999/xlink" xml:space="preserve" xmlns:serif="http://www.serif.com/" style="fill-rule:evenodd;clip-rule:evenodd;stroke-linejoin:round;stroke-miterlimit:2;">
    <path d="M634.91,143.25L1088.43,730.65C1094.67,738.807 1097.19,749.127 1095.38,759.084C1093.58,769.041 1087.58,777.799 1078.95,783.197L625.557,1065.38C619.678,1068.97 613.077,1070.78 606.479,1070.78C599.878,1070.78 593.28,1068.97 587.401,1065.38L134.011,783.197C125.37,777.92 119.374,769.041 117.573,759.084C115.772,749.005 118.292,738.689 124.53,730.65L577.8,143.25C584.64,134.371 595.198,129.211 606.355,129.211C617.512,129.211 628.07,134.371 634.91,143.25Z"/>
</svg>
