<?xml version="1.0" encoding="UTF-8" standalone="no"?>
<!DOCTYPE svg PUBLIC "-//W3C//DTD SVG 1.1//EN" "http://www.w3.org/Graphics/SVG/1.1/DTD/svg11.dtd">
<svg width="100%" height="100%" viewBox="0 0 1200 1200" version="1.1" xmlns="http://www.w3.org/2000/svg" xmlns:xlink="http://www.w3.org/1999/xlink" xml:space="preserve" xmlns:serif="http://www.serif.com/" style="fill-rule:evenodd;clip-rule:evenodd;stroke-linejoin:round;stroke-miterlimit:2;">
    <g transform="matrix(0.777018,0,0,0.678576,135.242,83.2592)">
        <path d="M1087.15,776.195C1086.2,782.083 1083.8,787.694 1080.08,792.494L626.809,1379.89C619.969,1388.77 609.411,1393.93 598.254,1393.93C587.097,1393.93 576.539,1388.77 569.699,1379.89L116.181,792.494C109.943,784.337 107.423,774.017 109.224,764.06C110.379,757.673 113.262,751.779 117.461,746.949C118.406,741.061 120.805,735.45 124.53,730.65L577.8,143.25C584.64,134.371 595.198,129.211 606.355,129.211C617.512,129.211 628.07,134.371 634.91,143.25L1088.43,730.65C1094.67,738.807 1097.19,749.127 1095.38,759.084C1094.23,765.471 1091.35,771.365 1087.15,776.195Z"/>
    </g>
</svg>
