<?xml version="1.0" encoding="UTF-8" standalone="no"?>
<!DOCTYPE svg PUBLIC "-//W3C//DTD SVG 1.1//EN" "http://www.w3.org/Graphics/SVG/1.1/DTD/svg11.dtd">
<svg width="100%" height="100%" viewBox="0 0 1200 1200" version="1.1" xmlns="http://www.w3.org/2000/svg" xmlns:xlink="http://www.w3.org/1999/xlink" xml:space="preserve" xmlns:serif="http://www.serif.com/" style="fill-rule:evenodd;clip-rule:evenodd;stroke-linejoin:round;stroke-miterlimit:2;">
    <path d="M1004,338.45L1003.99,338.45C1017.31,344.087 1025.83,357.044 1025.95,371.325L1025.95,371.563L1025.94,822.793C1025.94,837.07 1017.43,850.027 1004.35,855.785L620.909,1023.75C616.351,1025.78 611.429,1026.75 606.511,1026.75C601.59,1026.75 596.672,1025.78 592.113,1023.75L208.673,855.785C195.599,850.027 187.079,837.07 187.079,822.793L187.079,371.325C187.2,357.048 195.837,344.091 209.036,338.45L592.476,176.12C601.472,172.28 611.55,172.28 620.55,176.12L1004,338.45Z"/>
</svg>
